<svg fill="#ffffff" width="148px" height="148px" viewBox="-9.6 -9.6 115.20 115.20" xmlns="http://www.w3.org/2000/svg" stroke="#ffffff"><g id="SVGRepo_bgCarrier" stroke-width="0"></g><g id="SVGRepo_tracerCarrier" stroke-linecap="round" stroke-linejoin="round" stroke="#CCCCCC" stroke-width="1.536"></g><g id="SVGRepo_iconCarrier"><title></title><path d="M69.3677,51.0059a30,30,0,1,0-42.7354,0A41.9971,41.9971,0,0,0,0,90a5.9966,5.9966,0,0,0,6,6H90a5.9966,5.9966,0,0,0,6-6A41.9971,41.9971,0,0,0,69.3677,51.0059ZM48,12A18,18,0,1,1,30,30,18.02,18.02,0,0,1,48,12ZM12.5977,84A30.0624,30.0624,0,0,1,42,60H54A30.0624,30.0624,0,0,1,83.4023,84Z"></path></g></svg>